HIERARCHY
ROOT pelvis
{
	OFFSET -0.099584 -26.635582 1.850026
	CHANNELS 6 Xposition Yposition Zposition Zrotation Yrotation Xrotation
	JOINT left_hip
	{
		OFFSET 6.211795 -9.182106 -2.204521
		CHANNELS 3 Zrotation Yrotation Xrotation
		JOINT left_knee
		{
			OFFSET 4.633109 -42.567017 0.389795
			CHANNELS 3 Zrotation Yrotation Xrotation
			JOINT left_ankle
			{
				OFFSET -1.640086 -47.114273 -4.275586
				CHANNELS 3 Zrotation Yrotation Xrotation
				JOINT left_foot
				{
					OFFSET 4.452620 -6.610764 12.966256
					CHANNELS 3 Zrotation Yrotation Xrotation
					End Site
					{
						OFFSET 0.000000 0.000000 0.000000
					}
				}
			}
		}
	}
	JOINT right_hip
	{
		OFFSET -6.512502 -10.102238 -1.781430
		CHANNELS 3 Zrotation Yrotation Xrotation
		JOINT right_knee
		{
			OFFSET -4.971094 -42.680836 -0.977768
			CHANNELS 3 Zrotation Yrotation Xrotation
			JOINT right_ankle
			{
				OFFSET 2.184703 -46.712280 -3.851226
				CHANNELS 3 Zrotation Yrotation Xrotation
				JOINT right_foot
				{
					OFFSET -4.009747 -6.987427 13.916187
					CHANNELS 3 Zrotation Yrotation Xrotation
					End Site
					{
						OFFSET 0.000000 0.000000 0.000000
					}
				}
			}
		}
	}
	JOINT spine1
	{
		OFFSET 0.520760 13.880336 -3.458407
		CHANNELS 3 Zrotation Yrotation Xrotation
		JOINT spine2
		{
			OFFSET 0.517517 15.754037 3.582482
			CHANNELS 3 Zrotation Yrotation Xrotation
			JOINT spine3
			{
				OFFSET -0.346111 6.287867 0.433931
				CHANNELS 3 Zrotation Yrotation Xrotation
				JOINT neck
				{
					OFFSET -1.385784 22.548601 -2.742398
					CHANNELS 3 Zrotation Yrotation Xrotation
					JOINT head
					{
						OFFSET 0.951086 9.863846 5.988714
						CHANNELS 3 Zrotation Yrotation Xrotation
						End Site
						{
							OFFSET 0.000000 0.000000 0.000000
						}
					}
				}
				JOINT left_collar
				{
					OFFSET 8.027418 12.157059 -1.828810
					CHANNELS 3 Zrotation Yrotation Xrotation
					JOINT left_shoulder
					{
						OFFSET 12.886099 5.173325 -2.243435
						CHANNELS 3 Zrotation Yrotation Xrotation
						JOINT left_elbow
						{
							OFFSET 29.194897 -2.228384 -2.336014
							CHANNELS 3 Zrotation Yrotation Xrotation
							JOINT left_wrist
							{
								OFFSET 28.775101 1.474442 -0.902235
								CHANNELS 3 Zrotation Yrotation Xrotation
								JOINT left_hand
								{
									OFFSET 8.899994 -1.088192 -1.629311
									CHANNELS 3 Zrotation Yrotation Xrotation
									End Site
									{
										OFFSET 0.000000 0.000000 0.000000
									}
								}
							}
						}
					}
				}
				JOINT right_collar
				{
					OFFSET -9.202812 11.990282 -2.184024
					CHANNELS 3 Zrotation Yrotation Xrotation
					JOINT right_shoulder
					{
						OFFSET -12.063190 5.322075 -0.917062
						CHANNELS 3 Zrotation Yrotation Xrotation
						JOINT right_elbow
						{
							OFFSET -29.339024 -2.059385 -3.335225
							CHANNELS 3 Zrotation Yrotation Xrotation
							JOINT right_wrist
							{
								OFFSET -29.568916 1.071762 -0.869044
								CHANNELS 3 Zrotation Yrotation Xrotation
								JOINT right_hand
								{
									OFFSET -9.198730 -0.893108 -1.058223
									CHANNELS 3 Zrotation Yrotation Xrotation
									End Site
									{
										OFFSET 0.000000 0.000000 0.000000
									}
								}
							}
						}
					}
				}
			}
		}
	}
}
MOTION
Frames: 12
Frame Time: 0.008333
2.153736 105.662964 16.304125 -176.732468 -1.001503 175.603928 4.281561 -2.544977 2.806667 -2.907504 0.485571 -2.220850 -2.257508 3.325811 3.410873 11.679940 6.565444 -12.939902 2.387478 0.066940 -2.527420 1.727237 -2.496658 9.386205 -5.378545 -5.692248 -4.027491 13.386125 13.617860 -0.840044 -0.109500 2.477026 -1.112715 0.724251 -1.586387 22.809616 0.168500 0.434841 -10.054970 5.702607 8.860636 28.687298 -0.766395 -3.201830 4.139990 -24.043390 -0.003504 11.784498 -49.912971 -27.258154 6.621905 16.422779 -17.112595 -8.822116 -15.117201 0.632648 59.599300 -71.622070 -71.508690 -46.076649 19.039143 0.233428 13.356400 64.901642 21.798779 8.002574 -21.499556 31.076847 -22.137707 8.903409 8.729031 42.895981 71.665443 72.395561 -43.216965 
2.099773 105.662781 16.434757 -176.704926 -0.808399 175.683792 4.325485 -2.489981 2.938354 -2.950070 0.510232 -2.711632 -2.481488 3.450007 3.424239 11.764771 6.526766 -13.058793 2.406418 0.258309 -2.971128 1.760059 -2.498673 9.897674 -5.631102 -5.709116 -4.337746 13.652303 13.495591 -0.666310 -0.195705 2.417957 -0.987046 0.710606 -1.530635 22.985935 0.188489 0.470276 -10.327882 5.519321 8.977787 28.559099 -0.666619 -3.174792 3.605308 -23.975805 -0.399687 12.052851 -49.641830 -27.610695 6.617963 16.244434 -17.754091 -8.174844 -15.180573 -0.037421 59.956577 -71.901489 -71.560074 -45.839249 19.119858 0.548716 13.593748 64.711220 22.321125 7.838977 -21.847076 31.715206 -22.173344 8.897924 9.200923 43.009800 71.722984 72.444893 -43.176159 
2.039167 105.668114 16.563677 -176.682419 -0.618455 175.733948 4.334778 -2.454553 3.064084 -2.967549 0.575134 -3.137139 -2.616351 3.468137 3.429305 11.592770 6.564563 -12.880297 2.443257 0.450735 -3.392792 1.755849 -2.542786 10.414457 -5.846136 -5.717193 -4.654723 13.685750 13.689481 -0.760315 -0.281578 2.340212 -0.830066 0.679212 -1.446612 23.030266 0.253729 0.467093 -10.333427 5.591953 9.342551 28.026974 -0.738158 -3.444179 3.427889 -23.987963 -0.834156 12.000340 -49.301250 -27.846600 6.723582 16.052866 -18.372145 -7.806279 -15.181661 -0.614663 60.593372 -71.655899 -71.590889 -46.011105 19.210411 0.996611 13.563721 64.480614 22.677740 7.785754 -22.282377 32.359341 -22.521168 8.889834 9.644748 43.454735 71.689857 72.453094 -43.185875 
1.980608 105.673203 16.690203 -176.674271 -0.437218 175.799820 4.322577 -2.422998 3.169425 -2.982248 0.625710 -3.544737 -2.670365 3.528907 3.552477 11.446072 6.531094 -12.936782 2.467611 0.653042 -3.800064 1.730512 -2.611739 10.908876 -5.947474 -5.694658 -5.062588 13.593691 13.683492 -0.710198 -0.371146 2.300861 -0.668666 0.643378 -1.397965 23.088135 0.301992 0.485153 -10.441608 5.492465 9.515583 27.627398 -0.707738 -3.502242 3.112419 -23.935974 -1.303476 12.029455 -49.000946 -28.077293 6.763248 15.907392 -18.992962 -7.308704 -15.183938 -1.274395 61.059361 -71.728592 -71.642242 -45.953785 19.280264 1.442714 13.551647 64.290596 22.994307 7.724188 -22.777840 32.961651 -22.767805 8.792592 10.148702 43.800697 71.791565 72.518150 -43.090427 
1.925577 105.680428 16.815542 -176.645798 -0.250688 175.867340 4.342577 -2.410289 3.254715 -3.009550 0.690606 -3.923309 -2.731780 3.614501 3.656651 11.330466 6.535978 -12.896682 2.512071 0.842612 -4.206703 1.739387 -2.598987 11.378365 -6.150203 -5.737706 -5.433269 13.740734 13.736319 -0.609613 -0.422202 2.239677 -0.517178 0.602757 -1.332555 23.163378 0.351601 0.506552 -10.580309 5.341052 9.699795 27.307034 -0.635441 -3.556971 2.721336 -23.924614 -1.769426 12.106743 -48.626705 -28.355337 6.706275 15.738423 -19.546841 -6.846822 -15.012039 -2.074998 61.562057 -71.742615 -71.684952 -45.953655 19.357357 1.868157 13.647306 64.030365 23.459055 7.579872 -23.208496 33.468613 -22.939594 8.569667 10.727145 44.156971 71.775848 72.563622 -43.093922 
1.870285 105.687576 16.934942 -176.749023 0.013381 175.891876 4.109553 -2.340571 3.452600 -2.867898 0.470836 -4.317209 -3.802310 4.933422 3.286227 14.246821 4.394241 -12.264489 2.457500 1.022669 -4.485385 1.712467 -2.371151 11.799374 -6.487009 -5.424292 -5.583832 14.772500 11.478885 -1.115691 -0.844867 2.588751 -0.266939 0.816854 -1.772260 23.240395 0.392241 0.783799 -10.868981 4.251317 9.250118 29.634701 0.194990 -2.703576 -0.460095 -24.300259 -2.241958 12.304090 -47.757614 -28.674393 7.288139 15.655847 -19.749935 -7.690687 -14.472514 -3.160559 62.743118 -71.842339 -71.653603 -45.961613 19.602921 1.910656 14.110833 63.426826 24.335695 7.636815 -23.731726 33.770775 -22.860754 7.994936 11.278666 44.252151 71.865845 72.889130 -43.076591 
1.814283 105.695229 17.055021 -176.642731 0.100645 175.972717 4.296810 -2.479727 3.400745 -3.050851 0.902389 -4.580275 -2.584853 3.828327 4.050184 10.757907 6.149257 -13.356823 2.552306 1.108783 -4.908635 1.731956 -2.571792 12.195584 -6.779259 -5.534956 -6.174004 15.247080 13.179276 0.237685 -0.564303 2.137213 -0.236278 0.533182 -1.195768 23.593025 0.442132 0.567390 -11.361301 4.943089 9.920673 27.431509 -0.306479 -3.534904 1.360666 -23.845337 -2.570773 12.713186 -47.825489 -29.112635 6.574832 15.507113 -20.577539 -5.715696 -14.325484 -4.207245 61.868069 -72.291351 -71.845963 -45.566292 19.487141 2.590780 14.225387 63.460091 24.566025 7.250472 -24.173523 34.422131 -23.289337 7.626462 11.940581 44.612049 72.045837 72.790627 -42.682949 
1.762630 105.701225 17.180305 -176.621353 0.280733 176.043289 4.283862 -2.439295 3.440428 -3.009316 0.997672 -4.864662 -2.920838 3.798308 4.107705 11.225365 6.445492 -12.955950 2.614780 1.310598 -5.223238 1.669579 -2.578982 12.483155 -6.410146 -5.643575 -6.439425 13.741948 13.843142 -0.594628 -0.562265 2.127981 -0.043386 0.474471 -1.177070 23.344009 0.465211 0.576088 -11.027777 5.021372 10.281769 26.458466 -0.445252 -3.855412 1.483346 -23.732121 -3.242678 12.243798 -47.551186 -29.058857 6.900726 15.432853 -21.020254 -5.233423 -13.748509 -5.610756 61.611481 -71.792191 -71.816551 -45.889339 19.426046 3.297322 13.734990 63.326111 24.638660 7.369612 -24.754812 34.774323 -23.464649 6.841633 12.694759 44.433056 71.851898 72.687874 -43.068703 
1.710682 105.708298 17.303957 -176.630920 0.450790 176.082184 4.230949 -2.467200 3.484463 -2.991600 1.117144 -5.117744 -2.947767 3.868726 4.287263 11.185995 6.413243 -12.968596 2.629675 1.443894 -5.482188 1.648126 -2.540361 12.721296 -6.439467 -5.625192 -6.715492 13.744087 13.883468 -0.581286 -0.578295 2.091613 0.141059 0.408472 -1.123857 23.360561 0.479616 0.618628 -11.150981 4.854190 10.445367 26.211851 -0.313848 -3.926339 1.008684 -23.623705 -3.809484 12.278424 -47.169449 -29.247852 7.018909 15.399741 -21.424168 -4.630491 -12.948690 -7.259094 60.937496 -71.801598 -71.864677 -45.888042 19.376167 3.813611 13.715549 63.104908 25.073061 7.366973 -25.267761 35.004093 -23.571201 5.931554 13.396962 44.124611 71.849403 72.726311 -43.106464 
1.662212 105.712776 17.431168 -176.644073 0.602246 176.119858 4.177620 -2.513836 3.505532 -2.969896 1.218213 -5.337177 -2.992954 3.969606 4.465737 11.185950 6.354025 -12.937396 2.633710 1.557002 -5.721920 1.647111 -2.493250 12.912062 -6.478516 -5.630025 -6.928487 13.775747 13.941865 -0.593666 -0.575653 2.044523 0.366521 0.330581 -1.067553 23.266529 0.493509 0.650817 -11.216674 4.676329 10.613700 25.965857 -0.172235 -3.996436 0.540475 -23.513767 -4.374686 12.284968 -46.752190 -29.422558 7.170826 15.363267 -21.770197 -4.020279 -11.841108 -9.142539 59.909103 -71.726555 -71.923729 -45.952618 19.314257 4.332968 13.672171 62.828709 25.538517 7.353890 -25.688486 35.162720 -23.650124 4.862478 14.084391 43.699741 71.804718 72.758820 -43.195358 
1.615097 105.717110 17.558229 -176.666733 0.748866 176.142807 4.123329 -2.543143 3.510250 -2.968934 1.337997 -5.521125 -2.875466 4.016741 4.712053 10.933721 6.320475 -12.964509 2.627372 1.633667 -5.914242 1.660400 -2.359375 13.030388 -6.574683 -5.650540 -7.117671 14.166318 13.931520 -0.555587 -0.576037 1.999396 0.602055 0.238836 -1.036633 23.215897 0.523843 0.719946 -11.408775 4.350624 10.721467 25.902102 0.095693 -3.968587 -0.022668 -23.356619 -4.933949 12.421425 -46.374474 -29.612307 7.214644 15.367083 -22.153925 -3.308209 -10.425137 -11.174699 58.444458 -71.786270 -71.964958 -46.014717 19.163162 4.853323 13.734466 62.534389 26.056662 7.220212 -25.958691 35.314777 -23.521889 3.621005 14.693233 42.990925 71.861008 72.791977 -43.204639 
1.569263 105.719566 17.685034 -176.680771 0.880867 176.206543 4.057013 -2.584419 3.472967 -2.926626 1.442206 -5.684862 -2.979987 4.105236 4.919299 11.151725 6.292063 -13.029400 2.649084 1.732159 -6.070830 1.612512 -2.328273 13.007225 -6.301606 -5.608644 -7.300573 13.686113 14.036465 -0.566555 -0.563282 1.948768 0.868818 0.173790 -0.991848 22.907633 0.531377 0.760954 -11.336952 4.209224 10.818326 25.457312 0.133054 -4.031282 -0.225446 -23.167236 -5.631931 12.299280 -46.022285 -29.629175 7.456480 15.407169 -22.462629 -2.823777 -8.656452 -13.200851 56.616249 -71.815720 -71.988022 -45.976803 18.980621 5.479679 13.510671 62.209648 26.387505 7.321940 -26.298180 35.367264 -23.750616 2.453817 15.263498 42.411308 71.880043 72.827370 -43.250484 
